
<svg viewbox="0 0 800 700" width="800" height="700" xmlns="http://www.w3.org/2000/svg">
    <circle cx="400" cy="52" r="40" stroke-width="15" fill="transparent" stroke="#0F61B5" id="svg_1"/>
	<line x1="375" x2="200" y1="80" y2="280" stroke="#0F61B5" stroke-width="15" stroke-linejoin="bevel"/>
    <line x1="425" x2="600" y1="80" y2="280" stroke="#0F61B5" stroke-width="15" stroke-linejoin="bevel"/>
	
	<rect x="25" y="275" rx="20" ry="20" width="750" height="50" stroke="#0F61B5" fill="transparent" stroke-width="25"/>
	<line x1="100" x2="80" y1="270" y2="225" stroke="#0F61B5" stroke-width="25" stroke-linecap="round"/>
	<line x1="80" x2="150" y1="225" y2="190" stroke="#0F61B5" stroke-width="25" stroke-linecap="round"/>
	<line x1="150" x2="190" y1="190" y2="270" stroke="#0F61B5" stroke-width="25" stroke-linecap="round"/>
	<line x1="700" x2="720" y1="270" y2="225" stroke="#0F61B5" stroke-width="25" stroke-linecap="round"/>
	<line x1="720" x2="650" y1="225" y2="190" stroke="#0F61B5" stroke-width="25" stroke-linecap="round"/>
	<line x1="650" x2="610" y1="190" y2="270" stroke="#0F61B5" stroke-width="25" stroke-linecap="round"/>
	<rect x="350" y="175" width="100" height="100" stroke="#0F61B5" fill="transparent" stroke-width="25"/>
    
	<line x1="80" x2="135" y1="330" y2="675" stroke="#0F61B5" stroke-width="25" stroke-linecap="round"/>
	<line x1="720" x2="665" y1="330" y2="675" stroke="#0F61B5" stroke-width="25" stroke-linecap="round"/>
	<line x1="135" x2="665" y1="675" y2="675" stroke="#0F61B5" stroke-width="25" stroke-linecap="round"/>
	<line x1="175" x2="250" y1="375" y2="625" stroke="#0F61B5" stroke-width="25" stroke-linecap="round"/>
	<line x1="625" x2="550" y1="375" y2="625" stroke="#0F61B5" stroke-width="25" stroke-linecap="round"/>
	<line x1="275" x2="325" y1="375" y2="625" stroke="#0F61B5" stroke-width="25" stroke-linecap="round"/>
	<line x1="525" x2="475" y1="375" y2="625" stroke="#0F61B5" stroke-width="25" stroke-linecap="round"/>
	<line x1="400" x2="400" y1="375" y2="625" stroke="#0F61B5" stroke-width="25" stroke-linecap="round"/>
</svg>